<svg xmlns="http://www.w3.org/2000/svg" width="768" height="448" viewBox="0 0 768 448" version="1.1">
	<path d="M 324 27.646 C 287.557 28.882, 261.438 33.503, 242.255 42.110 C 225.039 49.834, 216.057 57.824, 163.494 112.174 C 151.436 124.643, 140.245 135.220, 135.300 138.823 C 125.453 145.997, 111.101 153.104, 93.500 159.521 C 69.367 168.320, 58.014 174.965, 50.784 184.524 C 45.441 191.589, 44.064 196.432, 42.401 214 C 40.959 229.247, 41.227 236.960, 43.044 232.500 C 43.493 231.400, 43.891 229.262, 43.930 227.750 C 43.970 226.168, 44.563 225, 45.326 225 C 47.890 225, 50.964 220.362, 52.301 214.477 C 53.650 208.535, 53.655 208.529, 57.576 208.245 C 68.047 207.484, 78.815 200.197, 85.989 189.017 C 89.828 183.034, 89.656 180.078, 85.343 177.922 L 82.186 176.344 93.343 171.541 C 132.532 154.671, 142.220 148.817, 157.540 132.748 L 168.264 121.500 167.546 128.306 C 166.855 134.864, 166.489 135.591, 157.446 148.346 L 148.063 161.580 135.781 166.976 C 123.146 172.528, 118.610 174.943, 119.378 175.711 C 119.619 175.953, 128.971 174.343, 140.159 172.133 C 167.218 166.789, 177.917 164.845, 207 159.993 C 240.915 154.335, 257.108 151.081, 259.745 149.396 C 264.243 146.520, 266.884 136.254, 269.477 111.562 C 271.234 94.831, 271.350 91, 270.101 91 C 269.607 91, 268.899 94.263, 268.528 98.250 C 266.783 117.008, 263.166 136.576, 260.435 142.041 C 259.193 144.525, 258.650 144.640, 235.862 147.237 C 223.046 148.698, 212.397 149.731, 212.199 149.532 C 212.001 149.334, 212.630 136.731, 213.598 121.526 C 215.114 97.689, 215.590 93.754, 217.053 92.972 C 217.986 92.472, 222.743 90.880, 227.624 89.433 C 234.704 87.334, 239.385 86.692, 250.758 86.263 C 261.688 85.849, 264.783 85.444, 264.020 84.524 C 263.472 83.864, 261.295 82.806, 259.181 82.172 C 253.258 80.398, 226.435 82.221, 217.500 85.006 C 210.651 87.141, 210.166 87.525, 195 102.844 C 179.901 118.095, 179.390 118.501, 175.250 118.547 C 172.912 118.574, 171 118.304, 171 117.948 C 171 116.953, 188.691 101.723, 198.102 94.616 C 211.590 84.431, 216.872 82.487, 239 79.570 C 252.771 77.755, 275.062 75.729, 275.579 76.246 C 275.782 76.448, 276.072 100.218, 276.224 129.067 L 276.500 181.519 256.500 185.410 C 223.298 191.869, 186 201.758, 186 204.101 C 186 204.616, 187.012 204.805, 188.250 204.520 C 192.606 203.518, 249.662 194.011, 263 192.065 C 356.513 178.425, 416.831 175.333, 627.750 173.369 L 701 172.687 701.021 179.094 C 701.047 187.016, 703.046 196.895, 705.329 200.379 C 706.858 202.713, 707.688 203, 712.895 203 L 718.744 203 719.472 218.100 C 719.873 226.405, 719.818 233.529, 719.350 233.931 C 717.592 235.442, 700.338 240.025, 696.450 240.013 C 694.223 240.006, 691.965 240.435, 691.433 240.967 C 690.901 241.499, 688.673 242.354, 686.483 242.867 L 682.500 243.799 687.250 243.900 L 692 244 692 279 L 692 314 715.500 314 L 739 314 739 310 L 739 306 720 306 L 701 306 701 293 L 701 280 717 280 L 733 280 733 276 L 733 272 717 272 L 701 272 701 260 L 701 248 719.500 248 L 738 248 738 244 L 738 240 730.240 240 L 722.480 240 722.199 230.250 C 722.044 224.887, 721.461 211.500, 720.902 200.500 C 720.344 189.500, 719.700 171.950, 719.470 161.500 C 718.644 123.842, 714.313 83.692, 707.551 51 C 704.309 35.326, 703.807 34.244, 698.717 31.993 C 688.979 27.685, 690.288 27.716, 507.500 27.533 C 411.250 27.437, 328.675 27.488, 324 27.646 M 572.917 37.363 C 572.688 37.563, 545.500 38.027, 512.500 38.395 C 479.500 38.762, 428.875 39.503, 400 40.040 C 355.824 40.863, 343.299 40.770, 321 39.457 C 306.425 38.598, 290.900 38.032, 286.500 38.198 C 276.943 38.559, 277.463 37.370, 278.484 56.500 L 279.178 69.500 445.339 69.179 C 603.150 68.874, 689.310 69.775, 701.250 71.855 C 706.913 72.842, 706.900 72.890, 704.132 61.313 C 701.010 48.255, 698.666 41.826, 696.529 40.455 C 691.912 37.493, 682.126 37, 627.983 37 C 597.926 37, 573.146 37.164, 572.917 37.363 M 262.113 40.545 C 247.794 43.651, 235.702 49.167, 223.500 58.160 C 219.650 60.998, 200.525 79.362, 181 98.970 C 135.836 144.326, 132.291 146.932, 97.053 160.682 C 75.025 169.278, 65.967 174.161, 58.437 181.500 C 49.215 190.487, 45.633 199.023, 44.691 214.250 C 43.990 225.584, 47.130 219.275, 48.950 205.692 C 51.338 187.868, 57.198 181.657, 81.107 171.613 C 106.638 160.887, 129.895 149.834, 136.775 145.157 C 140.227 142.811, 152.602 131.636, 164.275 120.325 C 175.949 109.014, 189.045 96.878, 193.378 93.357 C 212.113 78.131, 226.262 73.390, 260 71.033 C 267.975 70.476, 274.837 70.015, 275.250 70.010 C 275.663 70.004, 276 63.025, 276 54.500 L 276 39 272.250 39.079 C 270.188 39.123, 265.626 39.783, 262.113 40.545 M 368 72.680 C 341.952 73.001, 286.163 74.941, 282.115 75.666 L 278.729 76.273 279.115 128.699 L 279.500 181.124 282.500 180.579 C 305.580 176.389, 354.218 170.641, 384.682 168.503 C 418.909 166.102, 558.423 161.942, 655 160.443 C 703.178 159.696, 702.423 159.745, 702.789 157.373 C 703.729 151.280, 703.718 151.290, 709.888 150.592 L 715.803 149.923 715.319 143.711 C 712.679 109.836, 708.425 76.092, 706.560 74.227 C 705.398 73.065, 436.514 71.836, 368 72.680 M 200.837 106.743 C 198.381 109.369, 193.862 114.910, 190.796 119.056 L 185.221 126.594 185.160 137.853 C 185.127 144.046, 184.801 150.051, 184.437 151.198 C 183.799 153.208, 184.005 153.259, 190.138 152.602 C 203.369 151.183, 202.994 151.371, 203.048 146.139 C 203.074 143.587, 203.685 132.725, 204.406 122 C 205.126 111.275, 205.623 102.381, 205.509 102.235 C 205.396 102.089, 203.293 104.118, 200.837 106.743 M 156 162.920 C 153.525 163.279, 150.600 164.111, 149.500 164.769 C 147.247 166.117, 147.321 166.109, 160.500 163.548 C 167.740 162.141, 164.492 161.688, 156 162.920 M 242.177 164.571 C 240.350 165.393, 239.017 166.551, 239.215 167.146 C 239.825 168.975, 248.049 171.239, 251.407 170.502 C 253.108 170.129, 257.313 169.600, 260.750 169.326 C 264.188 169.053, 267 168.418, 267 167.915 C 267 167.412, 267.009 166.662, 267.021 166.250 C 267.039 165.572, 264.007 165.094, 250 163.567 C 247.170 163.259, 244.267 163.631, 242.177 164.571 M 120.487 202.733 C 104.174 208.587, 92.196 222.755, 90.383 238.339 C 89.720 244.039, 89.759 244.170, 92.027 243.839 C 93.972 243.555, 94.571 242.528, 95.698 237.550 C 98.198 226.505, 105.053 218.212, 115.880 213.135 C 120.778 210.839, 122.785 210.500, 131.500 210.500 C 140.215 210.500, 142.222 210.839, 147.120 213.135 C 156.789 217.669, 164.215 225.681, 166.920 234.500 C 169.698 243.556, 170.011 244, 173.621 244 C 176.667 244, 177 243.720, 177 241.157 C 177 237.339, 173.779 228.194, 170.737 223.375 C 166.743 217.048, 156.153 207.945, 149.006 204.694 C 140.514 200.832, 128.153 199.982, 120.487 202.733 M 552.754 205.084 C 537.259 208.737, 522.352 224.462, 520.366 239.250 C 519.751 243.831, 519.818 244, 522.253 244 C 524.372 244, 524.889 243.406, 525.471 240.305 C 525.852 238.273, 527.205 234.561, 528.478 232.055 C 538.377 212.575, 567.056 206.910, 584.795 220.933 C 591.041 225.869, 593.789 229.717, 596.568 237.415 C 598.402 242.495, 599.188 243.551, 601.329 243.811 C 603.750 244.105, 603.870 243.908, 603.465 240.311 L 603.036 236.500 604.117 240.250 C 605.399 244.694, 608.427 245.622, 607.379 241.250 C 604.521 229.336, 598.661 220.820, 588.118 213.261 C 576.829 205.167, 564.497 202.316, 552.754 205.084 M 342.500 239.876 C 330.432 243.052, 323.496 253.137, 326.144 263.658 C 328.063 271.280, 334.801 276.178, 350.500 281.364 C 354.900 282.817, 359.974 284.905, 361.775 286.004 C 369.688 290.829, 368.330 301.875, 359.364 305.621 C 354.677 307.580, 346.276 307.308, 341.271 305.036 C 337.021 303.107, 333.011 298.118, 333.004 294.750 C 333.001 293.317, 332.094 293, 328 293 C 322.228 293, 321.849 293.918, 324.896 300.500 C 329.136 309.657, 338.126 314.475, 351 314.490 C 361.261 314.502, 367.588 312.372, 371.908 307.452 C 379.417 298.899, 378.050 287.716, 368.615 280.520 C 366.660 279.029, 360.035 276.039, 353.894 273.875 C 341.131 269.380, 337.797 267.339, 335.957 262.897 C 334.867 260.264, 334.886 259.075, 336.075 255.712 C 337.867 250.643, 341.488 247.925, 347.323 247.267 C 357.042 246.172, 363.953 249.773, 366.140 257.074 C 367.299 260.942, 367.388 261, 372.177 261 C 376.971 261, 377.029 260.962, 376.386 258.250 C 374.439 250.040, 370.350 244.980, 363.016 241.703 C 358.166 239.536, 347.427 238.580, 342.500 239.876 M 490.882 240.381 C 481.930 243.580, 476.385 249.056, 472.671 258.368 C 469.828 265.497, 469.613 286.958, 472.308 294.682 C 477.736 310.241, 492.788 318.111, 508.427 313.564 C 515.675 311.457, 522.818 305.066, 526.142 297.714 C 528.294 292.957, 528.500 291.143, 528.500 277 C 528.500 262.085, 528.395 261.287, 525.728 255.857 C 519.152 242.471, 503.940 235.714, 490.882 240.381 M 21 244 L 21 248 32.500 248 L 44 248 44 281 L 44 314 49 314 L 54 314 54 281 L 54 248 66 248 L 78 248 78 244 L 78 240 49.500 240 L 21 240 21 244 M 97 277 L 97 314 101.500 314 L 106 314 106 299 L 106 284 114.908 284 L 123.817 284 131.658 298.750 L 139.500 313.500 144.879 313.807 C 148.995 314.041, 150.134 313.807, 149.730 312.807 C 149.440 312.088, 145.569 304.975, 141.129 297 C 134.093 284.366, 133.264 282.371, 134.681 281.500 C 139.009 278.841, 143.491 274.128, 145.135 270.509 C 148.674 262.717, 146.976 252.741, 141.113 246.877 C 135.635 241.400, 129.673 240, 111.818 240 L 97 240 97 277 M 177 275.556 C 169.575 295.133, 163.355 311.791, 163.177 312.575 C 162.931 313.657, 164.021 314, 167.705 314 L 172.557 314 175.896 304.500 L 179.235 295 194.868 295.001 L 210.500 295.001 213.950 304.501 L 217.400 314 222.200 314 C 224.840 314, 226.986 313.663, 226.969 313.250 C 226.952 312.837, 220.728 296.300, 213.138 276.500 L 199.337 240.500 194.919 240.231 L 190.500 239.963 177 275.556 M 246 277 L 246 314 250.500 314 L 255 314 255 285.941 C 255 270.509, 255.386 258.120, 255.857 258.412 C 256.329 258.703, 264.766 271.322, 274.607 286.455 L 292.500 313.968 297.250 313.984 L 302 314 302 277 L 302 240 297.515 240 L 293.031 240 292.765 268.495 L 292.500 296.991 274 268.521 L 255.500 240.052 250.750 240.026 L 246 240 246 277 M 399 277 L 399 314 403.500 314 L 408 314 408 299.500 L 408 285 419.250 284.976 C 432.299 284.947, 438.035 283.865, 443.230 280.450 C 453.409 273.759, 454.636 256.849, 445.623 247.487 C 439.627 241.259, 434.446 240, 414.818 240 L 399 240 399 277 M 553 277 L 553 314 557.500 314 L 562 314 562 299 L 562 284 570.908 284 L 579.817 284 587.658 298.750 L 595.500 313.500 600.879 313.807 C 604.995 314.041, 606.134 313.807, 605.730 312.807 C 605.440 312.088, 601.569 304.975, 597.129 297 C 590.093 284.366, 589.264 282.371, 590.681 281.500 C 595.009 278.841, 599.491 274.128, 601.135 270.509 C 604.674 262.717, 602.976 252.741, 597.113 246.877 C 591.635 241.400, 585.673 240, 567.818 240 L 553 240 553 277 M 615 244 L 615 248 626.500 248 L 638 248 638 281 L 638 314 643 314 L 648 314 648 281 L 648 248 660 248 L 672 248 672 244 L 672 240 643.500 240 L 615 240 615 244 M 492.500 248.368 C 488.380 250.290, 485.410 253.311, 482.751 258.288 C 480.714 262.100, 480.500 263.875, 480.500 277 C 480.500 292.938, 481.464 296.330, 487.658 302.186 C 495.216 309.332, 507.067 308.595, 513.683 300.568 C 517.515 295.920, 519.112 290.622, 519.732 280.500 C 520.972 260.271, 514.157 248.037, 501.235 247.297 C 497.748 247.097, 494.324 247.517, 492.500 248.368 M 106 261.892 L 106 276 115.750 275.978 C 131.113 275.943, 137 272.071, 137 262 C 137 256.963, 134.998 252.896, 131.301 250.424 C 129.089 248.945, 126.134 248.470, 117.250 248.168 L 106 247.784 106 261.892 M 408 262.500 L 408 277 419.250 276.978 C 428.029 276.961, 431.395 276.550, 434.576 275.105 C 444.728 270.494, 444.364 254.968, 433.980 249.752 C 431.284 248.397, 427.965 248.003, 419.250 248.002 L 408 248 408 262.500 M 562 261.892 L 562 276 571.750 275.978 C 587.113 275.943, 593 272.071, 593 262 C 593 256.963, 590.998 252.896, 587.301 250.424 C 585.089 248.945, 582.134 248.470, 573.250 248.168 L 562 247.784 562 261.892 M 188.707 269.276 C 185.547 278.199, 182.970 285.837, 182.981 286.250 C 183.006 287.238, 207 287.227, 207 286.239 C 207 284.938, 195.917 254.542, 195.164 253.776 C 194.772 253.377, 191.866 260.352, 188.707 269.276" stroke="none" fill="black" fill-rule="evenodd"/>
</svg>